<svg width="418" height="52" viewBox="0 0 418 52" fill="none" xmlns="http://www.w3.org/2000/svg">
<path d="M9.80957 11.9629V31.582H19.6191C20.9635 31.582 22.2282 31.3314 23.4131 30.8301C24.598 30.306 25.6348 29.5996 26.5234 28.7109C27.4121 27.8223 28.1071 26.7855 28.6084 25.6006C29.1325 24.3929 29.3945 23.1169 29.3945 21.7725C29.3945 20.4281 29.1325 19.1634 28.6084 17.9785C28.1071 16.7708 27.4121 15.7227 26.5234 14.834C25.6348 13.9453 24.598 13.2503 23.4131 12.749C22.2282 12.2249 20.9635 11.9629 19.6191 11.9629H9.80957ZM9.80957 51.167H0V2.15332H19.6191C21.4193 2.15332 23.151 2.39258 24.8145 2.87109C26.4779 3.32682 28.0273 3.98763 29.4629 4.85352C30.9212 5.69661 32.2428 6.72201 33.4277 7.92969C34.6354 9.11458 35.6608 10.4362 36.5039 11.8945C37.3698 13.3529 38.0306 14.9137 38.4863 16.5771C38.9648 18.2406 39.2041 19.9723 39.2041 21.7725C39.2041 23.4587 38.9876 25.0993 38.5547 26.6943C38.1445 28.2894 37.5407 29.8047 36.7432 31.2402C35.9684 32.6758 35.0114 33.9974 33.8721 35.2051C32.7327 36.4128 31.4567 37.4609 30.0439 38.3496L35.4785 51.167H25.0537L20.7812 41.2891L9.80957 41.3574V51.167ZM58.8232 42.2119C59.1878 42.3258 59.5524 42.4056 59.917 42.4512C60.2816 42.474 60.6462 42.4854 61.0107 42.4854C61.9222 42.4854 62.7995 42.36 63.6426 42.1094C64.4857 41.8587 65.2718 41.5055 66.001 41.0498C66.7529 40.5713 67.4137 40.0016 67.9834 39.3408C68.5758 38.6572 69.0544 37.9053 69.4189 37.085L76.2549 43.9551C75.389 45.1855 74.3864 46.2907 73.2471 47.2705C72.1305 48.2503 70.9115 49.082 69.5898 49.7656C68.291 50.4492 66.9124 50.9619 65.4541 51.3037C64.0186 51.6683 62.5374 51.8506 61.0107 51.8506C58.4359 51.8506 56.0091 51.3721 53.7305 50.415C51.4746 49.458 49.4922 48.125 47.7832 46.416C46.097 44.707 44.764 42.679 43.7842 40.332C42.8044 37.9622 42.3145 35.3646 42.3145 32.5391C42.3145 29.6452 42.8044 27.002 43.7842 24.6094C44.764 22.2168 46.097 20.1774 47.7832 18.4912C49.4922 16.805 51.4746 15.4948 53.7305 14.5605C56.0091 13.6263 58.4359 13.1592 61.0107 13.1592C62.5374 13.1592 64.0299 13.3415 65.4883 13.7061C66.9466 14.0706 68.3252 14.5947 69.624 15.2783C70.9456 15.9619 72.1761 16.805 73.3154 17.8076C74.4548 18.7874 75.4574 19.8926 76.3232 21.123L58.8232 42.2119ZM63.6084 22.9688C63.1755 22.8092 62.7425 22.7067 62.3096 22.6611C61.8994 22.6156 61.4665 22.5928 61.0107 22.5928C59.7347 22.5928 58.527 22.832 57.3877 23.3105C56.2712 23.7663 55.2913 24.4271 54.4482 25.293C53.6279 26.1589 52.9785 27.207 52.5 28.4375C52.0215 29.6452 51.7822 31.0124 51.7822 32.5391C51.7822 32.8809 51.7936 33.2682 51.8164 33.7012C51.862 34.1341 51.9189 34.5785 51.9873 35.0342C52.0785 35.4671 52.181 35.8887 52.2949 36.2988C52.4089 36.709 52.557 37.0736 52.7393 37.3926L63.6084 22.9688ZM99.3945 51.167C97.1387 51.167 95.0195 50.7454 93.0371 49.9023C91.0547 49.0365 89.3115 47.863 87.8076 46.3818C86.3265 44.8779 85.153 43.1348 84.2871 41.1523C83.444 39.1699 83.0225 37.0508 83.0225 34.7949V23.9258H78.4766V14.6289H83.0225V0H92.3193V14.6289H106.47V23.9258H92.3193V34.7949C92.3193 35.7747 92.5016 36.6976 92.8662 37.5635C93.2308 38.4066 93.7321 39.1471 94.3701 39.7852C95.0081 40.4232 95.7601 40.9359 96.626 41.3232C97.4919 41.6878 98.4147 41.8701 99.3945 41.8701H106.47V51.167H99.3945ZM121.064 51.167H111.733V14.5605H113.989L117.065 18.9014C118.569 17.5342 120.278 16.486 122.192 15.7568C124.106 15.0049 126.089 14.6289 128.14 14.6289H136.377V23.9258H128.14C127.16 23.9258 126.237 24.1081 125.371 24.4727C124.505 24.8372 123.753 25.3385 123.115 25.9766C122.477 26.6146 121.976 27.3665 121.611 28.2324C121.247 29.0983 121.064 30.0212 121.064 31.001V51.167ZM175.41 32.5391C175.41 35.2734 174.92 37.8255 173.94 40.1953C172.961 42.5423 171.628 44.5817 169.941 46.3135C168.255 48.0225 166.273 49.3783 163.994 50.3809C161.738 51.3607 159.312 51.8506 156.714 51.8506C154.139 51.8506 151.712 51.3607 149.434 50.3809C147.178 49.3783 145.195 48.0225 143.486 46.3135C141.8 44.5817 140.467 42.5423 139.487 40.1953C138.507 37.8255 138.018 35.2734 138.018 32.5391C138.018 29.7591 138.507 27.1842 139.487 24.8145C140.467 22.4447 141.8 20.4053 143.486 18.6963C145.195 16.9645 147.178 15.6087 149.434 14.6289C151.712 13.6491 154.139 13.1592 156.714 13.1592C159.312 13.1592 161.738 13.6263 163.994 14.5605C166.273 15.472 168.255 16.7822 169.941 18.4912C171.628 20.1774 172.961 22.2168 173.94 24.6094C174.92 26.9792 175.41 29.6224 175.41 32.5391ZM166.011 32.5391C166.011 31.0352 165.76 29.6794 165.259 28.4717C164.78 27.2412 164.119 26.193 163.276 25.3271C162.433 24.4385 161.442 23.7663 160.303 23.3105C159.186 22.832 157.99 22.5928 156.714 22.5928C155.438 22.5928 154.23 22.832 153.091 23.3105C151.974 23.7663 150.994 24.4385 150.151 25.3271C149.331 26.193 148.682 27.2412 148.203 28.4717C147.725 29.6794 147.485 31.0352 147.485 32.5391C147.485 33.9518 147.725 35.262 148.203 36.4697C148.682 37.6774 149.331 38.7256 150.151 39.6143C150.994 40.5029 151.974 41.2093 153.091 41.7334C154.23 42.2347 155.438 42.4854 156.714 42.4854C157.99 42.4854 159.186 42.2461 160.303 41.7676C161.442 41.2891 162.433 40.6169 163.276 39.751C164.119 38.8851 164.78 37.8369 165.259 36.6064C165.76 35.376 166.011 34.0202 166.011 32.5391ZM178.691 16.8506C178.691 14.8226 179.079 12.9199 179.854 11.1426C180.628 9.36523 181.676 7.81576 182.998 6.49414C184.342 5.14974 185.903 4.09017 187.681 3.31543C189.458 2.54069 191.361 2.15332 193.389 2.15332H215.879V11.9629H193.389C192.705 11.9629 192.067 12.0882 191.475 12.3389C190.882 12.5895 190.358 12.9427 189.902 13.3984C189.469 13.8314 189.128 14.3441 188.877 14.9365C188.626 15.529 188.501 16.167 188.501 16.8506C188.501 17.5342 188.626 18.1836 188.877 18.7988C189.128 19.3913 189.469 19.9154 189.902 20.3711C190.358 20.804 190.882 21.1458 191.475 21.3965C192.067 21.6471 192.705 21.7725 193.389 21.7725H203.198C205.226 21.7725 207.129 22.1598 208.906 22.9346C210.706 23.6865 212.267 24.7347 213.589 26.0791C214.933 27.4007 215.981 28.9616 216.733 30.7617C217.508 32.5391 217.896 34.4417 217.896 36.4697C217.896 38.4977 217.508 40.4004 216.733 42.1777C215.981 43.9551 214.933 45.516 213.589 46.8604C212.267 48.182 210.706 49.2301 208.906 50.0049C207.129 50.7796 205.226 51.167 203.198 51.167H181.426V41.3574H203.198C203.882 41.3574 204.52 41.2321 205.112 40.9814C205.705 40.7308 206.217 40.389 206.65 39.9561C207.106 39.5003 207.459 38.9762 207.71 38.3838C207.961 37.7913 208.086 37.1533 208.086 36.4697C208.086 35.7861 207.961 35.1481 207.71 34.5557C207.459 33.9632 207.106 33.4505 206.65 33.0176C206.217 32.5618 205.705 32.2087 205.112 31.958C204.52 31.7074 203.882 31.582 203.198 31.582H193.389C191.361 31.582 189.458 31.1947 187.681 30.4199C185.903 29.6452 184.342 28.597 182.998 27.2754C181.676 25.931 180.628 24.3701 179.854 22.5928C179.079 20.7926 178.691 18.8786 178.691 16.8506ZM232.764 51.167H223.364V0H232.764V51.167ZM275.352 51.167H273.096L269.473 46.1426C268.584 46.9401 267.638 47.6921 266.636 48.3984C265.656 49.082 264.619 49.6859 263.525 50.21C262.432 50.7113 261.304 51.11 260.142 51.4062C259.002 51.7025 257.84 51.8506 256.655 51.8506C254.08 51.8506 251.654 51.4176 249.375 50.5518C247.119 49.6859 245.137 48.4326 243.428 46.792C241.742 45.1286 240.409 43.1006 239.429 40.708C238.449 38.3154 237.959 35.5924 237.959 32.5391C237.959 29.6908 238.449 27.0817 239.429 24.7119C240.409 22.3193 241.742 20.2686 243.428 18.5596C245.137 16.8506 247.119 15.529 249.375 14.5947C251.654 13.6377 254.08 13.1592 256.655 13.1592C257.84 13.1592 259.014 13.3073 260.176 13.6035C261.338 13.8997 262.466 14.3099 263.56 14.834C264.653 15.3581 265.69 15.9733 266.67 16.6797C267.673 17.3861 268.607 18.1494 269.473 18.9697L273.096 14.6289H275.352V51.167ZM265.952 32.5391C265.952 31.263 265.701 30.0326 265.2 28.8477C264.722 27.64 264.061 26.5804 263.218 25.6689C262.375 24.7347 261.383 23.9941 260.244 23.4473C259.128 22.8776 257.931 22.5928 256.655 22.5928C255.379 22.5928 254.172 22.8092 253.032 23.2422C251.916 23.6751 250.936 24.3132 250.093 25.1562C249.272 25.9993 248.623 27.0475 248.145 28.3008C247.666 29.5312 247.427 30.944 247.427 32.5391C247.427 34.1341 247.666 35.5583 248.145 36.8115C248.623 38.042 249.272 39.0788 250.093 39.9219C250.936 40.765 251.916 41.403 253.032 41.8359C254.172 42.2689 255.379 42.4854 256.655 42.4854C257.931 42.4854 259.128 42.2119 260.244 41.665C261.383 41.0954 262.375 40.3548 263.218 39.4434C264.061 38.5091 264.722 37.4495 265.2 36.2646C265.701 35.057 265.952 33.8151 265.952 32.5391ZM314.487 21.8408L307.651 28.7109C307.31 27.7539 306.842 26.8994 306.25 26.1475C305.658 25.3727 304.985 24.7233 304.233 24.1992C303.504 23.6751 302.707 23.2764 301.841 23.0029C300.975 22.7295 300.086 22.5928 299.175 22.5928C297.899 22.5928 296.691 22.8548 295.552 23.3789C294.435 23.903 293.455 24.6436 292.612 25.6006C291.792 26.5348 291.143 27.6514 290.664 28.9502C290.186 30.249 289.946 31.6846 289.946 33.2568C289.946 34.5329 290.186 35.7292 290.664 36.8457C291.143 37.9622 291.792 38.9421 292.612 39.7852C293.455 40.6283 294.435 41.2891 295.552 41.7676C296.691 42.2461 297.899 42.4854 299.175 42.4854C300.086 42.4854 300.964 42.36 301.807 42.1094C302.65 41.8587 303.436 41.5055 304.165 41.0498C304.917 40.5713 305.578 40.0016 306.147 39.3408C306.74 38.6572 307.218 37.9053 307.583 37.085L314.419 43.9551C313.553 45.1855 312.55 46.2907 311.411 47.2705C310.295 48.2503 309.076 49.082 307.754 49.7656C306.455 50.4492 305.076 50.9619 303.618 51.3037C302.183 51.6683 300.701 51.8506 299.175 51.8506C296.6 51.8506 294.173 51.3721 291.895 50.415C289.639 49.4352 287.656 48.1022 285.947 46.416C284.261 44.7298 282.928 42.7588 281.948 40.5029C280.968 38.2471 280.479 35.8317 280.479 33.2568C280.479 30.4541 280.968 27.8337 281.948 25.3955C282.928 22.9574 284.261 20.8382 285.947 19.0381C287.656 17.2152 289.639 15.7796 291.895 14.7314C294.173 13.6833 296.6 13.1592 299.175 13.1592C300.701 13.1592 302.194 13.3529 303.652 13.7402C305.133 14.1276 306.535 14.6973 307.856 15.4492C309.201 16.1784 310.431 17.0785 311.548 18.1494C312.687 19.2204 313.667 20.4508 314.487 21.8408ZM328.467 51.167H319.067V0H328.467V32.2656L342.378 14.6289H353.11L340.977 29.873L353.11 51.167H342.378L334.961 37.8711L328.467 46.4844V51.167ZM370.2 42.2119C370.565 42.3258 370.929 42.4056 371.294 42.4512C371.659 42.474 372.023 42.4854 372.388 42.4854C373.299 42.4854 374.176 42.36 375.02 42.1094C375.863 41.8587 376.649 41.5055 377.378 41.0498C378.13 40.5713 378.791 40.0016 379.36 39.3408C379.953 38.6572 380.431 37.9053 380.796 37.085L387.632 43.9551C386.766 45.1855 385.763 46.2907 384.624 47.2705C383.507 48.2503 382.288 49.082 380.967 49.7656C379.668 50.4492 378.289 50.9619 376.831 51.3037C375.396 51.6683 373.914 51.8506 372.388 51.8506C369.813 51.8506 367.386 51.3721 365.107 50.415C362.852 49.458 360.869 48.125 359.16 46.416C357.474 44.707 356.141 42.679 355.161 40.332C354.181 37.9622 353.691 35.3646 353.691 32.5391C353.691 29.6452 354.181 27.002 355.161 24.6094C356.141 22.2168 357.474 20.1774 359.16 18.4912C360.869 16.805 362.852 15.4948 365.107 14.5605C367.386 13.6263 369.813 13.1592 372.388 13.1592C373.914 13.1592 375.407 13.3415 376.865 13.7061C378.324 14.0706 379.702 14.5947 381.001 15.2783C382.323 15.9619 383.553 16.805 384.692 17.8076C385.832 18.7874 386.834 19.8926 387.7 21.123L370.2 42.2119ZM374.985 22.9688C374.552 22.8092 374.119 22.7067 373.687 22.6611C373.276 22.6156 372.843 22.5928 372.388 22.5928C371.112 22.5928 369.904 22.832 368.765 23.3105C367.648 23.7663 366.668 24.4271 365.825 25.293C365.005 26.1589 364.355 27.207 363.877 28.4375C363.398 29.6452 363.159 31.0124 363.159 32.5391C363.159 32.8809 363.171 33.2682 363.193 33.7012C363.239 34.1341 363.296 34.5785 363.364 35.0342C363.455 35.4671 363.558 35.8887 363.672 36.2988C363.786 36.709 363.934 37.0736 364.116 37.3926L374.985 22.9688ZM401.748 51.167H392.417V14.5605H394.673L397.749 18.9014C399.253 17.5342 400.962 16.486 402.876 15.7568C404.79 15.0049 406.772 14.6289 408.823 14.6289H417.061V23.9258H408.823C407.843 23.9258 406.921 24.1081 406.055 24.4727C405.189 24.8372 404.437 25.3385 403.799 25.9766C403.161 26.6146 402.66 27.3665 402.295 28.2324C401.93 29.0983 401.748 30.0212 401.748 31.001V51.167Z" fill="black"/>
</svg>
